<?xml version="1.0" encoding="UTF-8" standalone="no"?>
<svg
   xmlns:dc="http://purl.org/dc/elements/1.1/"
   xmlns:cc="http://creativecommons.org/ns#"
   xmlns:rdf="http://www.w3.org/1999/02/22-rdf-syntax-ns#"
   xmlns:svg="http://www.w3.org/2000/svg"
   xmlns="http://www.w3.org/2000/svg"
   xmlns:xlink="http://www.w3.org/1999/xlink"
   xmlns:sodipodi="http://sodipodi.sourceforge.net/DTD/sodipodi-0.dtd"
   xmlns:inkscape="http://www.inkscape.org/namespaces/inkscape"
   inkscape:version="1.0 (4035a4fb49, 2020-05-01)"
   sodipodi:docname="Prime Video Icon 2020.svg"
   viewBox="0 0 1024 1024"
   height="1024"
   width="1024"
   id="svg1937"
   version="1.1">
  <metadata
     id="metadata1943">
    <rdf:RDF>
      <cc:Work
         rdf:about="">
        <dc:format>image/svg+xml</dc:format>
        <dc:type
           rdf:resource="http://purl.org/dc/dcmitype/StillImage" />
        <dc:title></dc:title>
      </cc:Work>
    </rdf:RDF>
  </metadata>
  <defs
     id="defs1941">
    <linearGradient
       id="linearGradient2516"
       inkscape:collect="always">
      <stop
         id="stop2512"
         offset="0"
         style="stop-color:#002962;stop-opacity:1" />
      <stop
         id="stop2514"
         offset="1"
         style="stop-color:#00b2f8;stop-opacity:1" />
    </linearGradient>
    <linearGradient
       gradientUnits="userSpaceOnUse"
       y2="191.10167"
       x2="811.93665"
       y1="853.14001"
       x1="223.42917"
       id="linearGradient2518"
       xlink:href="#linearGradient2516"
       inkscape:collect="always" />
  </defs>
  <sodipodi:namedview
     inkscape:current-layer="g1945"
     inkscape:window-maximized="1"
     inkscape:window-y="-9"
     inkscape:window-x="-9"
     inkscape:cy="517.77538"
     inkscape:cx="1119.2414"
     inkscape:zoom="0.25998604"
     inkscape:snap-global="false"
     inkscape:snap-page="true"
     inkscape:snap-text-baseline="true"
     inkscape:snap-center="true"
     inkscape:snap-object-midpoints="true"
     inkscape:snap-midpoints="true"
     inkscape:snap-smooth-nodes="true"
     inkscape:snap-intersection-paths="true"
     inkscape:object-paths="true"
     inkscape:snap-bbox-midpoints="true"
     inkscape:snap-bbox-edge-midpoints="true"
     inkscape:bbox-nodes="true"
     inkscape:bbox-paths="true"
     inkscape:snap-bbox="true"
     showgrid="false"
     id="namedview1939"
     inkscape:window-height="1001"
     inkscape:window-width="1920"
     inkscape:pageshadow="2"
     inkscape:pageopacity="0"
     guidetolerance="10"
     gridtolerance="10"
     objecttolerance="10"
     borderopacity="1"
     bordercolor="#666666"
     pagecolor="#ffffff" />
  <g
     id="g1945"
     inkscape:label="g143"
     inkscape:groupmode="layer">
    <path
       d="M 0,0 H 1024 V 1024 H 0 Z"
       style="display:inline;fill:url(#linearGradient2518);fill-opacity:1;stroke-width:7.559"
       id="rect1949" />
    <path
       style="fill:#f5f5f5;fill-opacity:1;stroke-width:1.34121"
       fill-rule="evenodd"
       clip-rule="evenodd"
       fill="#17a6df"
       d="m 259.93411,239.03112 c -7.49028,0 -14.74059,1.44056 -21.9787,4.3542 -7.22355,2.91097 -13.22187,6.85863 -18.27388,11.8376 l -1.77225,-6.69463 c -0.96068,-3.75525 -3.27975,-5.66062 -7.23654,-5.66062 h -18.1533 c -2.18493,0 -3.82539,0.47702 -4.77053,1.42972 -1.09384,0.92422 -1.63928,2.59788 -1.63928,5.01961 v 171.37296 c 0,2.39459 0.54544,4.06825 1.63928,4.99385 0.94514,0.95269 2.58442,1.41617 4.77053,1.41617 h 24.29895 c 2.3057,0 3.95679,-0.46348 4.91805,-1.41617 0.94494,-0.9256 1.34581,-2.59926 1.34581,-4.99385 v -56.26875 c 4.51699,3.94629 9.83591,7.02256 15.98018,9.25323 6.26524,2.21976 12.95515,3.32154 19.77922,3.32154 10.50212,0 19.79258,-2.84587 27.98901,-8.58781 8.0371,-5.74193 14.44829,-13.9205 19.2322,-24.56143 4.63795,-10.61384 7.09078,-23.02327 7.09078,-37.25681 0,-20.72487 -4.77171,-37.16196 -14.31434,-49.32747 -9.56918,-12.16415 -22.51077,-18.23134 -38.90519,-18.23134 m 9.01017,99.95862 c -4.50637,6.49136 -11.47638,9.75601 -21.01901,9.75601 -8.99541,0 -17.32736,-2.31331 -24.84439,-6.93855 v -67.58863 c 7.79693,-4.62662 16.11452,-6.93991 24.84439,-6.93991 9.70314,0 16.65997,3.25244 21.15296,9.76954 4.37123,6.51979 6.54416,16.87343 6.54416,31.10698 0,14.03025 -2.30688,24.31884 -6.67811,30.83456"
       id="path1854" />
    <path
       style="fill:#f5f5f5;fill-opacity:1;stroke-width:1.34121"
       fill-rule="evenodd"
       clip-rule="evenodd"
       fill="#17a6df"
       d="m 414.28873,241.587 h -3.5453 c -6.82524,0 -13.23643,1.60726 -19.24675,4.74993 -6.01051,3.18472 -12.28874,8.53226 -19.11162,16.05764 l -3.26519,-13.86628 c -0.82712,-3.75525 -3.28015,-5.66062 -7.10554,-5.66062 h -18.28588 c -2.18473,0 -3.67826,0.47702 -4.7719,1.42972 -0.95969,0.92559 -1.50671,2.59924 -1.50671,5.02095 v 118.43934 c 0,2.21845 0.54702,3.85007 1.50671,4.88408 1.09364,1.03539 2.5858,1.53951 4.7719,1.53951 h 24.43015 c 2.31908,0 3.95856,-0.50412 4.91805,-1.53951 0.94789,-1.03401 1.35939,-2.66563 1.35939,-4.88408 v -86.32679 c 3.82519,-1.71433 8.5971,-3.1427 14.19474,-4.24581 5.59765,-1.11532 10.23541,-1.66011 14.19357,-1.66011 2.8657,0 5.18458,0.0825 7.09078,0.23173 1.91958,0.17751 3.41135,0.27104 4.50519,0.27104 2.46502,0 4.10568,-0.50277 5.052,-1.53678 0.82692,-1.04756 1.37256,-2.66838 1.37256,-4.89901 V 248.0106 c 0,-2.39599 -0.54564,-4.06826 -1.50671,-4.99521 -1.09108,-0.95001 -2.73037,-1.42839 -5.04944,-1.42839"
       id="path1856" />
    <path
       style="fill:#f5f5f5;fill-opacity:1;stroke-width:1.34121"
       fill-rule="evenodd"
       clip-rule="evenodd"
       fill="#17a6df"
       d="m 455.64714,182.49136 c -6.41119,0 -11.60915,1.80915 -15.56888,5.4004 -3.81084,3.60617 -5.73003,8.47806 -5.73003,14.65502 0,6.16472 1.91919,11.05018 5.73003,14.62923 3.95816,3.6048 9.15651,5.4018 15.56888,5.4018 6.40981,0 11.46182,-1.797 15.41998,-5.4018 3.82559,-3.57905 5.86457,-8.46451 5.86457,-14.62923 0,-6.17832 -2.03898,-11.04885 -5.86457,-14.65502 -3.95934,-3.59125 -9.01017,-5.4004 -15.41998,-5.4004 m 12.14141,60.37631 H 443.4898 c -2.17293,0 -3.81084,0.47702 -4.9033,1.42972 -0.96107,0.92559 -1.50652,2.59924 -1.50652,5.02095 v 118.43934 c 0,2.21845 0.54545,3.85007 1.50652,4.88408 1.09246,1.03539 2.73174,1.53951 4.9033,1.53951 h 24.29875 c 2.31908,0 3.95718,-0.50412 4.91786,-1.53951 0.95969,-1.03401 1.35938,-2.66563 1.35938,-4.88408 V 249.31834 c 0,-2.42171 -0.40087,-4.09536 -1.35938,-5.02095 -0.96068,-0.95405 -2.59878,-1.42972 -4.91786,-1.42972"
       id="path1858" />
    <path
       style="fill:#f5f5f5;fill-opacity:1;stroke-width:1.34121"
       fill-rule="evenodd"
       clip-rule="evenodd"
       fill="#17a6df"
       d="m 535.61609,374.17991 c 2.33225,0 3.95816,-0.50414 4.91786,-1.53948 0.96107,-1.03401 1.50671,-2.66567 1.50671,-4.88411 v -93.02279 c 9.01016,-4.62524 18.28568,-6.93855 27.84286,-6.93855 10.23659,0 15.41999,5.82462 15.41999,17.47243 v 82.48891 c 0,2.21844 0.54701,3.8501 1.49333,4.88411 1.09227,1.03534 2.59898,1.53948 4.78391,1.53948 h 24.43034 c 2.31888,0 3.95816,-0.50414 4.90448,-1.53948 0.95969,-1.03401 1.37256,-2.66567 1.37256,-4.88411 v -93.26536 c 9.27591,-4.46398 18.56598,-6.69463 27.70892,-6.69463 10.23658,0 15.42155,5.8246 15.42155,17.47242 v 82.48893 c 0,2.21845 0.3995,3.85007 1.49177,4.88408 0.96106,1.03539 2.59897,1.53951 4.78528,1.53951 h 24.28282 c 2.4664,0 4.10706,-0.50412 5.05338,-1.53951 0.82574,-1.03401 1.37237,-2.66563 1.37237,-4.88408 V 277.0482 c 0,-11.97307 -3.27976,-21.32118 -9.83709,-28.0036 -6.40962,-6.66751 -15.55394,-10.01483 -27.42882,-10.01483 -8.18325,0 -15.967,1.27793 -23.60323,3.83654 -7.50365,2.58571 -15.70165,6.77593 -24.29895,12.60053 -6.27704,-10.96753 -16.92669,-16.43707 -32.21528,-16.43707 -7.63642,0 -15.00731,1.25219 -22.10989,3.71321 -7.22356,2.47729 -15.27561,6.73665 -24.2844,12.72386 l -2.05353,-6.93993 c -0.81237,-3.75521 -3.13124,-5.6606 -6.95683,-5.6606 h -18.28568 c -2.18493,0 -3.82559,0.47703 -4.91806,1.42972 -0.95969,0.92558 -1.50631,2.59924 -1.50631,5.02097 v 118.43932 c 0,2.21844 0.54662,3.8501 1.50631,4.88411 1.09247,1.03534 2.73313,1.53948 4.91806,1.53948 z"
       id="path1860" />
    <path
       style="fill:#f5f5f5;fill-opacity:1;stroke-width:1.35033"
       fill-rule="evenodd"
       clip-rule="evenodd"
       fill="#17a6df"
       d="m 828.34573,306.85678 c 0.97819,-0.89382 4.72588,-4.16975 7.22533,-9.35327 3.61256,-7.66266 3.47625,-13.15761 3.47625,-18.43683 0,-15.33754 -9.30305,-24.90778 -10.85008,-26.42441 -9.30305,-9.19013 -21.40414,-13.78049 -41.84387,-13.78049 -16.40623,0 -33.78926,5.65807 -45.19797,17.74662 -11.40871,12.10204 -18.36082,28.77825 -18.36082,50.59887 0,27.04727 7.93167,42.8162 16.40505,51.32954 12.94256,12.95407 28.92825,17.82886 49.92385,17.82886 13.62137,0 25.85798,-2.34169 38.95043,-7.1194 2.21404,-0.83989 3.73589,-1.92379 4.57697,-3.03328 0.70615,-1.09598 1.11312,-3.00495 1.11312,-5.75376 v -11.73535 c 0,-3.72348 -1.53484,-5.02309 -2.91861,-5.48278 -0.96579,-0.26829 -2.09228,-0.14688 -2.36294,-0.10643 -0.55744,0.0672 -1.80707,0.41924 -2.49964,0.58238 -12.52321,3.24763 -22.39531,4.69549 -29.61926,4.69549 -14.74963,0 -21.83825,-1.97633 -28.38457,-6.68666 -6.93992,-5.00824 -10.14532,-13.80608 -11.10993,-25.0278 l 16.27012,2.47649 c 10.14531,0.56757 39.90127,1.46137 55.20657,-12.31771 m -62.29539,-34.59943 c 4.86199,-5.15656 11.81587,-7.72876 18.90587,-7.72876 10.97165,0 19.88248,3.56036 19.88248,16.03987 0,10.00308 -6.95486,13.9975 -14.19239,15.18789 -13.8934,2.27563 -33.21981,-1.19039 -33.21981,-1.19039 1.11292,-9.62555 4.0335,-17.27339 8.62385,-22.30861"
       id="path1862" />
    <path
       style="fill:#f5f5f5;fill-opacity:1;stroke-width:1.39186"
       fill-rule="evenodd"
       clip-rule="evenodd"
       fill="#232f3e"
       d="m 630.46292,492.37082 c -16.85902,0 -34.70489,5.85494 -46.26447,18.36422 -11.71359,12.52324 -18.85158,29.77984 -18.85158,52.35988 0,27.98859 8.14194,44.30632 16.84349,53.11596 13.13572,13.40491 29.56123,18.44936 51.27202,18.44936 13.98546,0 26.55036,-2.42318 39.96402,-7.36719 2.2994,-0.86913 3.86178,-1.99071 4.72548,-3.13885 0.6971,-1.13415 0.99018,-3.10951 0.99018,-5.95399 v -12.14377 c 0,-3.85311 -1.561,-5.19791 -3.01204,-5.67364 -0.84994,-0.2776 -2.11904,-0.15218 -2.41212,-0.11016 -0.44473,0.0697 -1.86784,0.43387 -2.42489,0.60266 -13.00905,3.36064 -23.00625,4.85891 -30.55121,4.85891 -14.98941,0 -22.2828,-2.04512 -28.99021,-6.91937 -7.13918,-5.18255 -10.41657,-14.28656 -11.57335,-25.89883 l 16.85844,2.56269 c 10.27651,0.5887 40.98193,1.51222 56.68122,-12.74644 1.00513,-0.92491 4.85197,-4.31485 7.43344,-9.67877 3.70934,-7.92938 3.56909,-13.61553 3.56909,-19.07849 0,-15.87131 -9.57784,-25.77467 -11.15398,-27.34409 -9.55424,-9.50995 -22.11777,-14.26005 -43.10353,-14.26005 m 4.56046,58.87326 c -14.41879,2.35483 -34.26193,-1.23182 -34.26193,-1.23182 1.28464,-9.96054 4.28272,-17.87457 8.99443,-23.08503 4.85354,-5.33599 11.99271,-7.99774 19.41277,-7.99774 11.28006,0 20.42753,3.68429 20.42753,16.59813 -10e-4,10.35257 -7.14055,14.48605 -14.5728,15.71646"
       id="path1864" />
    <path
       style="fill:#f5f5f5;fill-opacity:1;stroke-width:1.41309"
       fill-rule="evenodd"
       clip-rule="evenodd"
       fill="#232f3e"
       d="m 224.12535,496.97088 c -1.4422,-1.09241 -3.44616,-1.63932 -6.31521,-1.63932 h -26.67998 c -3.58306,0 -5.29296,1.38018 -5.29296,4.08322 0,0.92057 0.14162,1.89701 0.57337,2.99083 0.2803,1.09239 0.7154,2.35657 1.28858,3.79401 l 45.59943,120.79969 c 0.71401,1.81109 1.42822,3.20557 2.15758,4.21063 0.8521,1.00792 1.86175,1.72665 3.00969,2.159 1.14793,0.45815 2.57753,0.68866 4.30022,0.68866 h 23.23186 c 2.00416,0 3.43239,-0.23051 4.58012,-0.68866 1.00848,-0.43235 2.01557,-1.15108 2.73097,-2.159 0.85347,-1.00506 1.58165,-2.40095 2.29566,-4.21063 l 45.4586,-120.79969 c 0.57456,-1.43744 1.00828,-2.70308 1.4296,-3.79401 0.29269,-1.09382 0.43353,-2.07026 0.43353,-2.99083 0,-2.70304 -1.7221,-4.08322 -5.30811,-4.08322 h -25.81097 c -2.8718,0 -4.87301,0.54691 -6.3154,1.63932 -1.28857,1.0938 -2.28308,2.90347 -3.01106,5.43473 l -27.95341,96.10143 -27.39243,-96.10143 c -0.7266,-2.52981 -1.72092,-4.34093 -3.00968,-5.43473"
       id="path1866" />
    <path
       style="fill:#f5f5f5;fill-opacity:1;stroke-width:1.41804"
       fill-rule="evenodd"
       clip-rule="evenodd"
       fill="#232f3e"
       d="m 348.00704,495.33302 c -2.31318,0 -4.04786,0.50394 -5.06322,1.51042 -1.00139,0.97785 -1.5787,2.74602 -1.5787,5.30446 v 125.1263 c 0,2.34369 0.57731,4.06746 1.5787,5.15985 1.01674,1.0938 2.75004,1.6264 5.06322,1.6264 h 25.70967 c 2.59544,0 4.33012,-0.5326 5.33151,-1.6264 0.87354,-1.09239 1.45223,-2.81616 1.45223,-5.15985 V 502.1479 c 0,-2.55844 -0.57869,-4.32661 -1.45223,-5.30446 -1.00139,-1.00648 -2.73607,-1.51042 -5.33151,-1.51042 z m -9.6756,-42.59596 c 0,6.5128 2.15719,11.67409 6.20505,15.4552 4.1883,3.80833 9.53378,5.70677 16.31771,5.70677 6.79633,0 12.28382,-1.89844 16.47193,-5.70677 4.03389,-3.78111 6.06343,-8.9424 6.06343,-15.4552 0,-6.52711 -2.02954,-11.67263 -6.06343,-15.48239 -4.18673,-3.79402 -9.6756,-5.70534 -16.47193,-5.70534 -6.78393,0 -12.12941,1.91132 -16.31771,5.70534 -4.04628,3.8083 -6.20505,8.95528 -6.20505,15.48239"
       id="path1868" />
    <path
       style="fill:#f5f5f5;fill-opacity:1;stroke-width:1.40553"
       fill-rule="evenodd"
       clip-rule="evenodd"
       fill="#232f3e"
       d="m 531.44726,433.17143 h -25.4992 c -2.2941,0 -4.01698,0.51168 -5.02309,1.49535 -1.14734,0.96807 -1.56828,2.71851 -1.56828,5.22444 v 62.9045 c -10.32785,-8.08327 -22.50408,-12.09585 -36.55622,-12.09585 -17.18535,0 -30.94362,6.67442 -41.41073,20.02467 -10.45492,13.34885 -15.75831,31.10996 -15.75831,53.34006 0,13.97674 2.28033,26.30223 6.73063,36.94529 4.58977,10.66007 11.02771,18.99993 19.63563,25.00676 8.45193,6.00541 18.48729,8.98189 30.08916,8.98189 15.04449,0 28.08756,-5.01041 39.12923,-15.02982 l 1.56946,6.17548 c 0.57279,2.136 1.30175,3.67241 2.43513,4.55687 1.14557,0.90995 2.86806,1.35076 5.02309,1.35076 h 21.2035 c 2.58836,0 4.31124,-0.52727 5.30476,-1.61016 0.86705,-1.08145 1.44121,-2.78796 1.44121,-5.10821 V 439.8898 c 0,-2.50591 -0.57416,-4.25637 -1.44121,-5.22446 -0.99352,-0.98223 -2.7164,-1.49391 -5.30476,-1.49391 m -32.09057,164.73443 c -7.89292,5.03874 -16.05217,7.54184 -24.50568,7.54184 -10.17462,0 -17.63264,-3.5009 -22.50388,-10.48715 -4.87006,-6.9749 -7.30637,-17.64775 -7.30637,-31.96605 0,-14.34528 2.28308,-25.04786 6.87285,-32.12057 4.59114,-7.08828 11.61721,-10.63173 21.06286,-10.63173 9.89453,0 18.64073,2.24938 26.38022,6.73114 z"
       id="path1870" />
    <path
       style="fill:#f5f5f5;fill-opacity:1;stroke-width:1.4045"
       fill-rule="evenodd"
       clip-rule="evenodd"
       fill="#232f3e"
       d="m 822.51716,510.44774 c -11.89593,-12.78851 -28.3712,-19.16788 -49.59005,-19.16788 -21.06404,0 -37.55328,6.37937 -49.45059,19.16788 -11.89907,12.80269 -17.9029,30.56535 -17.9029,53.25693 0,22.90524 6.00383,40.76698 17.9029,53.55549 11.89574,12.78851 28.38517,19.16933 49.45059,19.16933 21.22023,0 37.69412,-6.38082 49.59005,-19.16933 11.89751,-12.78851 17.77722,-30.65025 17.77722,-53.55549 0,-22.69299 -5.87971,-40.45566 -17.77722,-53.25693 m -49.59005,95.93999 c -18.6301,0 -27.95164,-14.23899 -27.95164,-42.68448 0,-28.23322 9.32154,-42.3859 27.95164,-42.3859 18.6303,0 27.95165,14.15268 27.95165,42.3859 0,28.44689 -9.32135,42.68448 -27.95165,42.68448"
       id="path1872" />
    <g
       style="fill:#f5f5f5;fill-opacity:1"
       transform="matrix(1.2531606,0,0,1.2714597,-116.19038,320.59524)"
       id="g1878">
      <path
         style="fill:#f5f5f5;fill-opacity:1"
         fill-rule="evenodd"
         clip-rule="evenodd"
         fill="#17a6df"
         d="M 705.736,325.731 C 641.784,354.8 572.17,368.869 508.84,368.869 c -93.764,0 -184.655,-27.563 -258.075,-73.28 -1.336,-0.834 -2.57,-1.194 -3.695,-1.194 -2.37,0 -4.117,1.646 -4.428,3.785 v 1.546 c 0.211,1.335 0.924,2.762 2.269,4.037 68.059,65.798 158.017,105.341 257.966,105.341 71.251,0 154.12,-23.999 211.193,-69.083 9.459,-7.491 1.335,-18.657 -8.334,-14.29"
         id="path1874" />
      <path
         style="fill:#f5f5f5;fill-opacity:1"
         fill-rule="evenodd"
         clip-rule="evenodd"
         fill="#17a6df"
         d="m 724.864,288.399 c -18.616,0 -41.027,4.237 -57.887,16.879 -2.059,1.536 -3.093,3.283 -3.293,4.77 v 0.924 c 0.2,1.727 1.847,2.882 4.729,2.53 18.304,-2.35 59.332,-7.581 66.632,2.41 7.3,9.961 -8.123,51.089 -15.012,69.414 -2.059,5.512 2.36,7.781 7.089,3.554 30.646,-27.301 38.559,-84.555 32.283,-92.809 -2.981,-3.976 -17.059,-7.672 -34.541,-7.672"
         id="path1876" />
    </g>
  </g>
</svg>
