<svg xmlns="http://www.w3.org/2000/svg" xmlns:xlink="http://www.w3.org/1999/xlink" height="1024" width="1024"><defs><linearGradient id="a"><stop offset="0" stop-color="#002962"/><stop offset="1" stop-color="#00b2f8"/></linearGradient><linearGradient gradientUnits="userSpaceOnUse" y2="191.102" x2="811.937" y1="853.14" x1="223.429" id="b" xlink:href="#a"/></defs><path d="M0 0h1024v1024H0z" fill="url(#b)"/><path fill-rule="evenodd" clip-rule="evenodd" fill="#f5f5f5" d="M259.934 239.031c-7.49 0-14.74 1.44-21.979 4.354-7.223 2.911-13.221 6.859-18.273 11.838l-1.773-6.695c-.96-3.755-3.28-5.66-7.236-5.66h-18.154c-2.184 0-3.825.477-4.77 1.43-1.094.924-1.64 2.597-1.64 5.019V420.69c0 2.395.546 4.068 1.64 4.994.945.953 2.584 1.416 4.77 1.416h24.3c2.305 0 3.956-.463 4.917-1.416.945-.926 1.346-2.6 1.346-4.994v-56.269c4.517 3.947 9.836 7.023 15.98 9.253 6.266 2.22 12.956 3.322 19.78 3.322 10.502 0 19.792-2.846 27.989-8.588 8.037-5.742 14.448-13.92 19.232-24.561 4.638-10.614 7.09-23.024 7.09-37.257 0-20.725-4.771-37.162-14.314-49.328-9.569-12.164-22.51-18.23-38.905-18.23m9.01 99.958c-4.506 6.491-11.476 9.756-21.019 9.756-8.995 0-17.327-2.314-24.844-6.939V274.22c7.797-4.627 16.114-6.94 24.844-6.94 9.703 0 16.66 3.252 21.153 9.77 4.371 6.519 6.544 16.873 6.544 31.106 0 14.03-2.306 24.319-6.678 30.835m145.345-97.404h-3.546c-6.825 0-13.236 1.607-19.246 4.75-6.01 3.185-12.29 8.532-19.112 16.058l-3.265-13.867c-.827-3.755-3.28-5.66-7.106-5.66h-18.286c-2.184 0-3.678.477-4.771 1.43-.96.925-1.507 2.599-1.507 5.02v118.44c0 2.218.547 3.85 1.507 4.884 1.093 1.035 2.585 1.54 4.771 1.54h24.43c2.32 0 3.96-.505 4.919-1.54.948-1.034 1.359-2.666 1.359-4.884V281.43c3.825-1.714 8.597-3.143 14.195-4.246 5.597-1.115 10.235-1.66 14.193-1.66 2.866 0 5.185.082 7.091.232 1.92.177 3.411.27 4.505.27 2.465 0 4.106-.502 5.052-1.536.827-1.048 1.373-2.668 1.373-4.899V248.01c0-2.396-.546-4.069-1.507-4.996-1.09-.95-2.73-1.428-5.05-1.428m41.359-59.095c-6.411 0-11.609 1.81-15.569 5.4-3.81 3.607-5.73 8.479-5.73 14.656 0 6.164 1.92 11.05 5.73 14.629 3.958 3.605 9.157 5.402 15.57 5.402 6.409 0 11.461-1.797 15.42-5.402 3.825-3.579 5.864-8.464 5.864-14.63 0-6.178-2.04-11.048-5.865-14.654-3.96-3.591-9.01-5.4-15.42-5.4m12.142 60.376h-24.3c-2.172 0-3.81.477-4.902 1.43-.962.925-1.507 2.599-1.507 5.02v118.44c0 2.218.545 3.85 1.506 4.884 1.093 1.035 2.732 1.54 4.904 1.54h24.299c2.319 0 3.957-.505 4.917-1.54.96-1.034 1.36-2.666 1.36-4.884v-118.44c0-2.421-.401-4.095-1.36-5.02-.96-.955-2.598-1.43-4.917-1.43m67.827 131.312c2.332 0 3.958-.504 4.918-1.54.961-1.034 1.507-2.665 1.507-4.884v-93.022c9.01-4.626 18.285-6.939 27.843-6.939 10.236 0 15.42 5.825 15.42 17.472v82.49c0 2.218.547 3.85 1.493 4.883 1.092 1.036 2.599 1.54 4.784 1.54h24.43c2.319 0 3.958-.504 4.905-1.54.96-1.034 1.372-2.665 1.372-4.884v-93.265c9.276-4.464 18.566-6.695 27.71-6.695 10.236 0 15.42 5.825 15.42 17.473v82.489c0 2.218.4 3.85 1.492 4.884.961 1.035 2.6 1.54 4.786 1.54h24.282c2.467 0 4.108-.505 5.054-1.54.826-1.034 1.372-2.666 1.372-4.884v-90.71c0-11.973-3.28-21.321-9.837-28.003-6.41-6.668-15.554-10.015-27.429-10.015-8.183 0-15.967 1.278-23.603 3.836-7.504 2.586-15.702 6.776-24.299 12.6-6.277-10.967-16.927-16.436-32.215-16.436a67.077 67.077 0 00-22.11 3.713c-7.224 2.477-15.276 6.737-24.284 12.724l-2.054-6.94c-.812-3.755-3.131-5.66-6.957-5.66h-18.285c-2.185 0-3.826.476-4.919 1.429-.96.926-1.506 2.6-1.506 5.021v118.44c0 2.218.547 3.85 1.506 4.883 1.093 1.036 2.734 1.54 4.919 1.54zm292.73-67.323c.978-.894 4.726-4.17 7.225-9.353 3.613-7.663 3.476-13.158 3.476-18.437 0-15.338-9.303-24.908-10.85-26.425-9.303-9.19-21.404-13.78-41.844-13.78-16.406 0-33.789 5.658-45.198 17.746-11.408 12.102-18.36 28.779-18.36 50.6 0 27.047 7.931 42.815 16.405 51.329 12.942 12.954 28.928 17.829 49.923 17.829 13.622 0 25.858-2.342 38.95-7.12 2.215-.84 3.737-1.924 4.578-3.033.706-1.096 1.113-3.005 1.113-5.754v-11.735c0-3.724-1.535-5.023-2.919-5.483-.965-.268-2.092-.147-2.363-.106-.557.067-1.807.419-2.5.582-12.522 3.248-22.395 4.696-29.618 4.696-14.75 0-21.839-1.977-28.385-6.687-6.94-5.008-10.145-13.806-11.11-25.028l16.27 2.477c10.145.567 39.901 1.46 55.207-12.318m-62.296-34.6c4.862-5.156 11.816-7.728 18.906-7.728 10.972 0 19.883 3.56 19.883 16.04 0 10.003-6.955 13.997-14.193 15.187-13.893 2.276-33.22-1.19-33.22-1.19 1.113-9.626 4.034-17.273 8.624-22.309M630.463 492.37c-16.86 0-34.705 5.856-46.265 18.365-11.713 12.523-18.851 29.78-18.851 52.36 0 27.989 8.142 44.306 16.843 53.116 13.136 13.405 29.562 18.45 51.272 18.45 13.986 0 26.55-2.424 39.964-7.368 2.3-.87 3.862-1.99 4.726-3.139.697-1.134.99-3.11.99-5.954v-12.144c0-3.853-1.56-5.197-3.012-5.673-.85-.278-2.119-.152-2.412-.11-.445.07-1.868.434-2.425.602-13.009 3.36-23.006 4.86-30.551 4.86-14.99 0-22.283-2.046-28.99-6.92-7.14-5.183-10.417-14.287-11.574-25.899l16.859 2.563c10.276.588 40.982 1.512 56.68-12.747 1.006-.925 4.853-4.315 7.434-9.679 3.71-7.929 3.57-13.615 3.57-19.078 0-15.871-9.578-25.775-11.155-27.344-9.554-9.51-22.117-14.26-43.103-14.26m4.56 58.873c-14.418 2.355-34.262-1.232-34.262-1.232 1.285-9.96 4.283-17.874 8.995-23.085 4.853-5.336 11.993-7.997 19.413-7.997 11.28 0 20.427 3.684 20.427 16.598 0 10.352-7.14 14.486-14.573 15.716M224.125 496.97c-1.442-1.092-3.446-1.638-6.315-1.638h-26.68c-3.583 0-5.293 1.38-5.293 4.083 0 .92.142 1.897.574 2.99.28 1.093.715 2.357 1.288 3.795L233.3 627c.714 1.81 1.428 3.205 2.157 4.21.852 1.008 1.862 1.727 3.01 2.159 1.148.458 2.577.689 4.3.689h23.232c2.004 0 3.432-.23 4.58-.69 1.009-.431 2.016-1.15 2.731-2.158.853-1.005 1.582-2.401 2.296-4.21l45.458-120.8c.575-1.438 1.009-2.703 1.43-3.794.293-1.094.433-2.07.433-2.991 0-2.703-1.722-4.083-5.308-4.083h-25.81c-2.872 0-4.874.546-6.316 1.639-1.289 1.094-2.283 2.903-3.011 5.435l-27.954 96.101-27.392-96.101c-.727-2.53-1.72-4.341-3.01-5.435m123.881-1.638c-2.313 0-4.048.504-5.063 1.51-1.002.978-1.579 2.746-1.579 5.305v125.126c0 2.344.577 4.068 1.579 5.16 1.017 1.094 2.75 1.626 5.063 1.626h25.71c2.595 0 4.33-.532 5.331-1.626.874-1.092 1.452-2.816 1.452-5.16V502.148c0-2.559-.578-4.327-1.452-5.305-1.001-1.006-2.736-1.51-5.331-1.51zm-9.676-42.596c0 6.513 2.158 11.674 6.205 15.455 4.189 3.809 9.534 5.707 16.318 5.707 6.797 0 12.284-1.898 16.472-5.707 4.034-3.78 6.064-8.942 6.064-15.455 0-6.527-2.03-11.673-6.064-15.482-4.187-3.794-9.675-5.706-16.472-5.706-6.784 0-12.13 1.912-16.318 5.706-4.046 3.808-6.205 8.955-6.205 15.482m193.116-19.566h-25.499c-2.294 0-4.017.512-5.023 1.496-1.147.968-1.568 2.718-1.568 5.224v62.905c-10.328-8.084-22.504-12.096-36.557-12.096-17.185 0-30.943 6.674-41.41 20.025-10.455 13.348-15.759 31.11-15.759 53.34 0 13.976 2.28 26.302 6.731 36.945 4.59 10.66 11.028 19 19.636 25.007 8.452 6.005 18.487 8.982 30.089 8.982 15.044 0 28.087-5.01 39.13-15.03l1.569 6.175c.572 2.136 1.301 3.673 2.435 4.557 1.145.91 2.868 1.35 5.023 1.35h21.203c2.589 0 4.312-.526 5.305-1.61.867-1.08 1.441-2.787 1.441-5.108V439.89c0-2.506-.574-4.257-1.441-5.225-.993-.982-2.716-1.494-5.305-1.494m-32.09 164.735c-7.893 5.039-16.052 7.542-24.506 7.542-10.175 0-17.633-3.501-22.504-10.487-4.87-6.975-7.306-17.648-7.306-31.967 0-14.345 2.283-25.047 6.873-32.12 4.59-7.088 11.617-10.632 21.062-10.632 9.895 0 18.641 2.25 26.38 6.731zm323.16-87.458c-11.896-12.789-28.371-19.168-49.59-19.168-21.064 0-37.553 6.38-49.45 19.168-11.9 12.802-17.903 30.565-17.903 53.257 0 22.905 6.003 40.767 17.903 53.555 11.895 12.789 28.385 19.17 49.45 19.17 21.22 0 37.694-6.381 49.59-19.17 11.898-12.788 17.777-30.65 17.777-53.555 0-22.693-5.88-40.456-17.777-53.257m-49.59 95.94c-18.63 0-27.952-14.24-27.952-42.685 0-28.233 9.322-42.386 27.952-42.386 18.63 0 27.952 14.153 27.952 42.386 0 28.447-9.322 42.685-27.952 42.685"/><g fill="#f5f5f5" fill-rule="evenodd" clip-rule="evenodd"><path d="M768.21 734.75c-80.142 36.96-167.38 54.847-246.742 54.847-117.501 0-231.403-35.045-323.41-93.172-1.674-1.06-3.22-1.518-4.63-1.518-2.97 0-5.16 2.092-5.549 4.812v1.966c.264 1.697 1.158 3.512 2.843 5.133 85.29 83.66 198.021 133.936 323.273 133.936 89.29 0 193.137-30.513 264.659-87.836 11.854-9.524 1.673-23.721-10.444-18.169"/><path d="M792.18 687.283c-23.328 0-51.413 5.387-72.541 21.46-2.58 1.954-3.876 4.175-4.127 6.066v1.175c.25 2.195 2.315 3.664 5.926 3.216 22.938-2.988 74.353-9.639 83.501 3.065 9.148 12.665-10.18 64.957-18.812 88.257-2.58 7.008 2.957 9.893 8.883 4.518 38.405-34.712 48.32-107.508 40.456-118.002-3.736-5.056-21.378-9.755-43.285-9.755"/></g></svg>