<svg width="1024" height="1024" xmlns="http://www.w3.org/2000/svg"><defs><linearGradient x1="50%" y1="0%" x2="50%" y2="100%" id="a"><stop stop-color="#3D3D3D" offset="0%"/><stop offset="100%"/></linearGradient></defs><g fill="none" fill-rule="evenodd"><path fill="url(#a)" d="M0 0h1024v1024H0z"/><path d="M440.585 430.202c-1.642 1.03-40.743 22.78-40.743 71.005 1.843 54.996 49.343 74.283 50.158 74.283-.815 1.031-7.171 26.274-26 52.735C409.056 651.02 392.47 674 367.285 674c-23.957 0-32.557-15.191-60.2-15.191-29.686 0-38.086 15.191-60.815 15.191-25.185 0-43-24.212-58.758-46.792-20.471-29.553-37.872-75.93-38.486-120.46-.414-23.597 4.1-46.792 15.557-66.494 16.172-27.505 45.044-46.177 76.573-46.792 24.157-.817 45.657 16.623 60.4 16.623 14.129 0 39.543-17.623 69.43-17.623 12.9.013 48.3 4.908 69.6 37.74zM299 389c-4.3-21.549 8.085-43.348 19.142-57.093C332.27 315.283 354.585 304 373.828 304c1.229 21.549-5.913 43.108-19.828 58.5-12.486 16.623-35.142 28.963-55 26.5zm286.178 282.716c11.765 0 23.531-.98 29.414-2.451V627.35c-3.432.735-12.01 1.225-17.404 1.225-21.57 0-31.375-10.05-31.375-32.355V454.052h49.024v-41.915h-49.024v-61.034h-53.19v61.034H475.12v41.915h37.503v148.05c0 49.76 20.345 69.614 72.555 69.614zM791.2 670l92.409-257.863h-55.397l-64.71 206.143h-.981l-64.71-206.143h-56.378L734.333 670H791.2z" fill="#FFF" fill-rule="nonzero"/></g></svg>