<svg xmlns="http://www.w3.org/2000/svg" viewBox="0 0 48 48" width="480" height="480"><path fill="#880e4f" d="M10.185 3.56C9.516 3.18 8.983 3 8.209 3 6.884 3 6 3.875 6 5.406v37.188C6 44.125 6.884 45 8.209 45c.773 0 1.307-.18 1.976-.56l32.213-18.163C43.287 25.773 44 25.094 44 24s-.713-1.775-1.603-2.279L10.185 3.56z"/><path fill="#d81b60" d="M12 8h28v13H12z"/><path fill="#ff1744" d="M40 27.629V21H12v13h16.701z"/><path fill="#fff" d="M34 11h3v2h-3zm-19 0h3v2h-3zm0 6h3v2h-3zm0 6h3v2h-3zm0 6h3v2h-3zm19-12h3v2h-3zm0 6h3v2h-3z"/></svg>